<mxfile host="app.diagrams.net" agent="Mozilla/5.0 (Windows NT 10.0; Win64; x64) AppleWebKit/537.36 (KHTML, like Gecko) Chrome/136.0.0.0 Safari/537.36" version="27.0.5">
  <diagram name="Page-1" id="DsLxYvVcJdECcUtamA9Z">
    <mxGraphModel dx="1091" dy="479" grid="1" gridSize="10" guides="1" tooltips="1" connect="1" arrows="1" fold="1" page="1" pageScale="1" pageWidth="850" pageHeight="1100" math="0" shadow="0">
      <root>
        <mxCell id="0" />
        <mxCell id="1" parent="0" />
        <mxCell id="SYwWKozgop0VhhN9Qn-d-1" value="Owner" style="shape=module;align=left;spacingLeft=20;align=center;verticalAlign=top;whiteSpace=wrap;html=1;" parent="1" vertex="1">
          <mxGeometry x="100" y="60" width="100" height="50" as="geometry" />
        </mxCell>
        <mxCell id="SYwWKozgop0VhhN9Qn-d-2" value="Warehouse&amp;nbsp;" style="shape=module;align=left;spacingLeft=20;align=center;verticalAlign=top;whiteSpace=wrap;html=1;" parent="1" vertex="1">
          <mxGeometry x="370" y="260" width="100" height="50" as="geometry" />
        </mxCell>
        <mxCell id="_5vdMld97EVU9zWrEdL7-3" style="edgeStyle=orthogonalEdgeStyle;rounded=0;orthogonalLoop=1;jettySize=auto;html=1;exitX=1;exitY=0.75;exitDx=0;exitDy=0;" edge="1" parent="1" source="SYwWKozgop0VhhN9Qn-d-3" target="SYwWKozgop0VhhN9Qn-d-15">
          <mxGeometry relative="1" as="geometry" />
        </mxCell>
        <mxCell id="SYwWKozgop0VhhN9Qn-d-3" value="Sales" style="shape=module;align=left;spacingLeft=20;align=center;verticalAlign=top;whiteSpace=wrap;html=1;" parent="1" vertex="1">
          <mxGeometry x="280" y="30" width="100" height="50" as="geometry" />
        </mxCell>
        <mxCell id="SYwWKozgop0VhhN9Qn-d-4" value="Production" style="shape=module;align=left;spacingLeft=20;align=center;verticalAlign=top;whiteSpace=wrap;html=1;" parent="1" vertex="1">
          <mxGeometry x="400" y="155" width="100" height="50" as="geometry" />
        </mxCell>
        <mxCell id="SYwWKozgop0VhhN9Qn-d-5" value="" style="endArrow=open;endSize=12;dashed=1;html=1;rounded=0;exitX=1;exitY=0.4;exitDx=0;exitDy=0;entryX=0;entryY=0;entryDx=0;entryDy=15;entryPerimeter=0;exitPerimeter=0;" parent="1" source="SYwWKozgop0VhhN9Qn-d-1" target="SYwWKozgop0VhhN9Qn-d-4" edge="1">
          <mxGeometry width="160" relative="1" as="geometry">
            <mxPoint x="280" y="140" as="sourcePoint" />
            <mxPoint x="440" y="140" as="targetPoint" />
          </mxGeometry>
        </mxCell>
        <mxCell id="SYwWKozgop0VhhN9Qn-d-6" value="" style="endArrow=open;endSize=12;dashed=1;html=1;rounded=0;exitX=1.04;exitY=0.14;exitDx=0;exitDy=0;entryX=0;entryY=0;entryDx=0;entryDy=35;entryPerimeter=0;exitPerimeter=0;" parent="1" source="SYwWKozgop0VhhN9Qn-d-1" target="SYwWKozgop0VhhN9Qn-d-3" edge="1">
          <mxGeometry width="160" relative="1" as="geometry">
            <mxPoint x="350" y="240" as="sourcePoint" />
            <mxPoint x="510" y="240" as="targetPoint" />
          </mxGeometry>
        </mxCell>
        <mxCell id="SYwWKozgop0VhhN9Qn-d-7" value="" style="endArrow=open;endSize=12;dashed=1;html=1;rounded=0;exitX=1;exitY=0.75;exitDx=0;exitDy=0;entryX=0;entryY=0;entryDx=0;entryDy=15;entryPerimeter=0;" parent="1" source="SYwWKozgop0VhhN9Qn-d-1" target="SYwWKozgop0VhhN9Qn-d-2" edge="1">
          <mxGeometry width="160" relative="1" as="geometry">
            <mxPoint x="350" y="240" as="sourcePoint" />
            <mxPoint x="510" y="240" as="targetPoint" />
          </mxGeometry>
        </mxCell>
        <mxCell id="SYwWKozgop0VhhN9Qn-d-8" value="StockDB" style="shape=module;align=left;spacingLeft=20;align=center;verticalAlign=top;whiteSpace=wrap;html=1;" parent="1" vertex="1">
          <mxGeometry x="770" y="280" width="100" height="50" as="geometry" />
        </mxCell>
        <mxCell id="SYwWKozgop0VhhN9Qn-d-10" value="" style="shape=providedRequiredInterface;html=1;verticalLabelPosition=bottom;sketch=0;" parent="1" vertex="1">
          <mxGeometry x="550" y="170" width="20" height="20" as="geometry" />
        </mxCell>
        <mxCell id="SYwWKozgop0VhhN9Qn-d-12" style="edgeStyle=orthogonalEdgeStyle;rounded=0;orthogonalLoop=1;jettySize=auto;html=1;exitX=1;exitY=0.5;exitDx=0;exitDy=0;entryX=0;entryY=0.5;entryDx=0;entryDy=0;entryPerimeter=0;" parent="1" source="SYwWKozgop0VhhN9Qn-d-4" target="SYwWKozgop0VhhN9Qn-d-10" edge="1">
          <mxGeometry relative="1" as="geometry">
            <Array as="points" />
          </mxGeometry>
        </mxCell>
        <mxCell id="SYwWKozgop0VhhN9Qn-d-13" style="edgeStyle=orthogonalEdgeStyle;rounded=0;orthogonalLoop=1;jettySize=auto;html=1;exitX=1;exitY=0.5;exitDx=0;exitDy=0;exitPerimeter=0;entryX=0.9;entryY=0;entryDx=0;entryDy=0;entryPerimeter=0;" parent="1" source="SYwWKozgop0VhhN9Qn-d-10" target="SYwWKozgop0VhhN9Qn-d-2" edge="1">
          <mxGeometry relative="1" as="geometry" />
        </mxCell>
        <mxCell id="SYwWKozgop0VhhN9Qn-d-14" value="Material details" style="text;html=1;align=center;verticalAlign=middle;resizable=0;points=[];autosize=1;strokeColor=none;fillColor=none;" parent="1" vertex="1">
          <mxGeometry x="515" y="125" width="100" height="30" as="geometry" />
        </mxCell>
        <mxCell id="_5vdMld97EVU9zWrEdL7-5" style="edgeStyle=orthogonalEdgeStyle;rounded=0;orthogonalLoop=1;jettySize=auto;html=1;exitX=1;exitY=0.5;exitDx=0;exitDy=0;exitPerimeter=0;entryX=0.5;entryY=0;entryDx=0;entryDy=0;" edge="1" parent="1" source="SYwWKozgop0VhhN9Qn-d-15" target="SYwWKozgop0VhhN9Qn-d-4">
          <mxGeometry relative="1" as="geometry">
            <mxPoint x="450" y="140" as="targetPoint" />
            <Array as="points">
              <mxPoint x="450" y="100" />
              <mxPoint x="450" y="140" />
            </Array>
          </mxGeometry>
        </mxCell>
        <mxCell id="SYwWKozgop0VhhN9Qn-d-15" value="" style="shape=providedRequiredInterface;html=1;verticalLabelPosition=bottom;sketch=0;" parent="1" vertex="1">
          <mxGeometry x="395" y="90" width="20" height="20" as="geometry" />
        </mxCell>
        <mxCell id="SYwWKozgop0VhhN9Qn-d-20" value="Production Status" style="text;html=1;align=center;verticalAlign=middle;resizable=0;points=[];autosize=1;strokeColor=none;fillColor=none;" parent="1" vertex="1">
          <mxGeometry x="320" y="110" width="120" height="30" as="geometry" />
        </mxCell>
        <mxCell id="_5vdMld97EVU9zWrEdL7-9" style="edgeStyle=orthogonalEdgeStyle;rounded=0;orthogonalLoop=1;jettySize=auto;html=1;exitX=0;exitY=0.5;exitDx=0;exitDy=0;exitPerimeter=0;entryX=1;entryY=0.5;entryDx=0;entryDy=0;" edge="1" parent="1" source="_5vdMld97EVU9zWrEdL7-6" target="SYwWKozgop0VhhN9Qn-d-3">
          <mxGeometry relative="1" as="geometry" />
        </mxCell>
        <mxCell id="_5vdMld97EVU9zWrEdL7-6" value="" style="shape=providedRequiredInterface;html=1;verticalLabelPosition=bottom;sketch=0;" vertex="1" parent="1">
          <mxGeometry x="440" y="45" width="20" height="20" as="geometry" />
        </mxCell>
        <mxCell id="_5vdMld97EVU9zWrEdL7-7" style="edgeStyle=orthogonalEdgeStyle;rounded=0;orthogonalLoop=1;jettySize=auto;html=1;exitX=0.75;exitY=0;exitDx=0;exitDy=0;entryX=1;entryY=0.5;entryDx=0;entryDy=0;entryPerimeter=0;" edge="1" parent="1" source="SYwWKozgop0VhhN9Qn-d-4" target="_5vdMld97EVU9zWrEdL7-6">
          <mxGeometry relative="1" as="geometry" />
        </mxCell>
        <mxCell id="_5vdMld97EVU9zWrEdL7-10" value="Order Details" style="text;html=1;align=center;verticalAlign=middle;resizable=0;points=[];autosize=1;strokeColor=none;fillColor=none;" vertex="1" parent="1">
          <mxGeometry x="430" y="15" width="90" height="30" as="geometry" />
        </mxCell>
        <mxCell id="_5vdMld97EVU9zWrEdL7-13" value="" style="ellipse;html=1;shape=endState;strokeColor=none;" vertex="1" parent="1">
          <mxGeometry x="320" y="175" width="30" height="30" as="geometry" />
        </mxCell>
        <mxCell id="_5vdMld97EVU9zWrEdL7-14" value="" style="ellipse;html=1;shape=endState;strokeColor=none;" vertex="1" parent="1">
          <mxGeometry x="210" y="30" width="30" height="30" as="geometry" />
        </mxCell>
        <mxCell id="_5vdMld97EVU9zWrEdL7-15" value="" style="ellipse;html=1;shape=endState;strokeColor=none;" vertex="1" parent="1">
          <mxGeometry x="285" y="280" width="30" height="30" as="geometry" />
        </mxCell>
        <mxCell id="_5vdMld97EVU9zWrEdL7-19" value="" style="endArrow=open;endSize=12;dashed=1;html=1;rounded=0;exitX=0;exitY=0;exitDx=0;exitDy=15;exitPerimeter=0;entryX=1;entryY=0.5;entryDx=0;entryDy=0;" edge="1" parent="1" source="SYwWKozgop0VhhN9Qn-d-3" target="_5vdMld97EVU9zWrEdL7-14">
          <mxGeometry width="160" relative="1" as="geometry">
            <mxPoint x="230" y="240" as="sourcePoint" />
            <mxPoint x="390" y="240" as="targetPoint" />
          </mxGeometry>
        </mxCell>
        <mxCell id="_5vdMld97EVU9zWrEdL7-20" value="Data Access" style="text;html=1;align=center;verticalAlign=middle;resizable=0;points=[];autosize=1;strokeColor=none;fillColor=none;" vertex="1" parent="1">
          <mxGeometry x="175" y="10" width="90" height="30" as="geometry" />
        </mxCell>
        <mxCell id="_5vdMld97EVU9zWrEdL7-21" value="" style="endArrow=open;endSize=12;dashed=1;html=1;rounded=0;exitX=0;exitY=0;exitDx=0;exitDy=35;exitPerimeter=0;entryX=1;entryY=0.5;entryDx=0;entryDy=0;" edge="1" parent="1" source="SYwWKozgop0VhhN9Qn-d-4" target="_5vdMld97EVU9zWrEdL7-13">
          <mxGeometry width="160" relative="1" as="geometry">
            <mxPoint x="230" y="230" as="sourcePoint" />
            <mxPoint x="390" y="230" as="targetPoint" />
          </mxGeometry>
        </mxCell>
        <mxCell id="_5vdMld97EVU9zWrEdL7-23" value="Data Access" style="text;html=1;align=center;verticalAlign=middle;resizable=0;points=[];autosize=1;strokeColor=none;fillColor=none;" vertex="1" parent="1">
          <mxGeometry x="285" y="155" width="90" height="30" as="geometry" />
        </mxCell>
        <mxCell id="_5vdMld97EVU9zWrEdL7-25" value="" style="endArrow=open;endSize=12;dashed=1;html=1;rounded=0;exitX=0;exitY=0;exitDx=0;exitDy=35;exitPerimeter=0;entryX=1;entryY=0.5;entryDx=0;entryDy=0;" edge="1" parent="1" source="SYwWKozgop0VhhN9Qn-d-2" target="_5vdMld97EVU9zWrEdL7-15">
          <mxGeometry width="160" relative="1" as="geometry">
            <mxPoint x="230" y="230" as="sourcePoint" />
            <mxPoint x="390" y="230" as="targetPoint" />
          </mxGeometry>
        </mxCell>
        <mxCell id="_5vdMld97EVU9zWrEdL7-26" value="Data Access" style="text;html=1;align=center;verticalAlign=middle;resizable=0;points=[];autosize=1;strokeColor=none;fillColor=none;" vertex="1" parent="1">
          <mxGeometry x="255" y="258" width="90" height="30" as="geometry" />
        </mxCell>
        <mxCell id="_5vdMld97EVU9zWrEdL7-27" value="Persistence" style="shape=module;align=left;spacingLeft=20;align=center;verticalAlign=top;whiteSpace=wrap;html=1;" vertex="1" parent="1">
          <mxGeometry x="610" y="270" width="100" height="50" as="geometry" />
        </mxCell>
        <mxCell id="_5vdMld97EVU9zWrEdL7-28" value="" style="shape=providedRequiredInterface;html=1;verticalLabelPosition=bottom;sketch=0;flipH=0;flipV=0;direction=south;" vertex="1" parent="1">
          <mxGeometry x="380" y="330" width="20" height="20" as="geometry" />
        </mxCell>
        <mxCell id="_5vdMld97EVU9zWrEdL7-31" style="edgeStyle=orthogonalEdgeStyle;rounded=0;orthogonalLoop=1;jettySize=auto;html=1;exitX=0.25;exitY=1;exitDx=0;exitDy=0;entryX=0;entryY=0.5;entryDx=0;entryDy=0;entryPerimeter=0;" edge="1" parent="1" source="SYwWKozgop0VhhN9Qn-d-2" target="_5vdMld97EVU9zWrEdL7-28">
          <mxGeometry relative="1" as="geometry" />
        </mxCell>
        <mxCell id="_5vdMld97EVU9zWrEdL7-34" value="" style="shape=providedRequiredInterface;html=1;verticalLabelPosition=bottom;sketch=0;direction=east;" vertex="1" parent="1">
          <mxGeometry x="510" y="275" width="20" height="20" as="geometry" />
        </mxCell>
        <mxCell id="_5vdMld97EVU9zWrEdL7-39" value="" style="shape=providedRequiredInterface;html=1;verticalLabelPosition=bottom;sketch=0;" vertex="1" parent="1">
          <mxGeometry x="740" y="285" width="20" height="20" as="geometry" />
        </mxCell>
        <mxCell id="_5vdMld97EVU9zWrEdL7-41" style="edgeStyle=orthogonalEdgeStyle;rounded=0;orthogonalLoop=1;jettySize=auto;html=1;exitX=1;exitY=0.5;exitDx=0;exitDy=0;exitPerimeter=0;entryX=0;entryY=0;entryDx=0;entryDy=15;entryPerimeter=0;" edge="1" parent="1" source="_5vdMld97EVU9zWrEdL7-39" target="SYwWKozgop0VhhN9Qn-d-8">
          <mxGeometry relative="1" as="geometry" />
        </mxCell>
        <mxCell id="_5vdMld97EVU9zWrEdL7-43" style="edgeStyle=orthogonalEdgeStyle;rounded=0;orthogonalLoop=1;jettySize=auto;html=1;exitX=0.5;exitY=0;exitDx=0;exitDy=0;entryX=0.5;entryY=1;entryDx=0;entryDy=0;" edge="1" parent="1" source="_5vdMld97EVU9zWrEdL7-42" target="SYwWKozgop0VhhN9Qn-d-1">
          <mxGeometry relative="1" as="geometry" />
        </mxCell>
        <mxCell id="_5vdMld97EVU9zWrEdL7-42" value="" style="ellipse;html=1;shape=endState;strokeColor=none;" vertex="1" parent="1">
          <mxGeometry x="135" y="145" width="30" height="30" as="geometry" />
        </mxCell>
        <mxCell id="_5vdMld97EVU9zWrEdL7-44" value="Admin" style="text;html=1;align=center;verticalAlign=middle;resizable=0;points=[];autosize=1;strokeColor=none;fillColor=none;" vertex="1" parent="1">
          <mxGeometry x="120" y="168" width="60" height="30" as="geometry" />
        </mxCell>
        <mxCell id="_5vdMld97EVU9zWrEdL7-50" style="edgeStyle=orthogonalEdgeStyle;rounded=0;orthogonalLoop=1;jettySize=auto;html=1;exitX=1;exitY=0.5;exitDx=0;exitDy=0;exitPerimeter=0;entryX=0;entryY=0;entryDx=0;entryDy=15;entryPerimeter=0;" edge="1" parent="1" source="_5vdMld97EVU9zWrEdL7-34" target="_5vdMld97EVU9zWrEdL7-27">
          <mxGeometry relative="1" as="geometry" />
        </mxCell>
        <mxCell id="_5vdMld97EVU9zWrEdL7-53" value="Encryption" style="edgeLabel;html=1;align=center;verticalAlign=middle;resizable=0;points=[];" vertex="1" connectable="0" parent="_5vdMld97EVU9zWrEdL7-50">
          <mxGeometry x="-0.3333" y="-2" relative="1" as="geometry">
            <mxPoint x="10" y="-2" as="offset" />
          </mxGeometry>
        </mxCell>
        <mxCell id="_5vdMld97EVU9zWrEdL7-51" style="edgeStyle=orthogonalEdgeStyle;rounded=0;orthogonalLoop=1;jettySize=auto;html=1;exitX=1;exitY=0.5;exitDx=0;exitDy=0;exitPerimeter=0;entryX=0;entryY=0;entryDx=0;entryDy=35;entryPerimeter=0;" edge="1" parent="1" source="_5vdMld97EVU9zWrEdL7-28" target="_5vdMld97EVU9zWrEdL7-27">
          <mxGeometry relative="1" as="geometry" />
        </mxCell>
        <mxCell id="_5vdMld97EVU9zWrEdL7-52" value="Access Control" style="edgeLabel;html=1;align=center;verticalAlign=middle;resizable=0;points=[];" vertex="1" connectable="0" parent="_5vdMld97EVU9zWrEdL7-51">
          <mxGeometry x="-0.4717" y="-3" relative="1" as="geometry">
            <mxPoint as="offset" />
          </mxGeometry>
        </mxCell>
        <mxCell id="_5vdMld97EVU9zWrEdL7-55" style="edgeStyle=orthogonalEdgeStyle;rounded=0;orthogonalLoop=1;jettySize=auto;html=1;exitX=1;exitY=0.5;exitDx=0;exitDy=0;entryX=0;entryY=0.5;entryDx=0;entryDy=0;entryPerimeter=0;" edge="1" parent="1" source="SYwWKozgop0VhhN9Qn-d-2" target="_5vdMld97EVU9zWrEdL7-34">
          <mxGeometry relative="1" as="geometry" />
        </mxCell>
        <mxCell id="_5vdMld97EVU9zWrEdL7-56" style="edgeStyle=orthogonalEdgeStyle;rounded=0;orthogonalLoop=1;jettySize=auto;html=1;exitX=1;exitY=0.5;exitDx=0;exitDy=0;entryX=0;entryY=0.5;entryDx=0;entryDy=0;entryPerimeter=0;" edge="1" parent="1" source="_5vdMld97EVU9zWrEdL7-27" target="_5vdMld97EVU9zWrEdL7-39">
          <mxGeometry relative="1" as="geometry" />
        </mxCell>
      </root>
    </mxGraphModel>
  </diagram>
</mxfile>
